<svg xmlns="http://www.w3.org/2000/svg" viewBox="0 0 100 100">
  <defs>
    <linearGradient id="filmGrad" x1="0%" y1="0%" x2="100%" y2="100%">
      <stop offset="0%" style="stop-color:#c9a227;stop-opacity:1" />
      <stop offset="100%" style="stop-color:#e07b4c;stop-opacity:1" />
    </linearGradient>
  </defs>
  
  <!-- Background -->
  <rect width="100" height="100" fill="#0f0f0f"/>
  
  <!-- Film reel background -->
  <rect x="15" y="15" width="70" height="70" rx="8" fill="url(#filmGrad)"/>
  
  <!-- Film strip holes -->
  <rect x="20" y="20" width="60" height="60" rx="4" fill="#0f0f0f" opacity="0.15"/>
  
  <!-- Film frames -->
  <rect x="28" y="28" width="16" height="12" fill="#f5f5f0" opacity="0.9"/>
  <rect x="28" y="44" width="16" height="12" fill="#f5f5f0" opacity="0.9"/>
  <rect x="28" y="60" width="16" height="12" fill="#f5f5f0" opacity="0.9"/>
  
  <rect x="56" y="28" width="16" height="12" fill="#f5f5f0" opacity="0.9"/>
  <rect x="56" y="44" width="16" height="12" fill="#f5f5f0" opacity="0.9"/>
  <rect x="56" y="60" width="16" height="12" fill="#f5f5f0" opacity="0.9"/>
  
  <!-- Sprocket holes -->
  <circle cx="24" cy="26" r="2" fill="#0f0f0f" opacity="0.3"/>
  <circle cx="24" cy="38" r="2" fill="#0f0f0f" opacity="0.3"/>
  <circle cx="24" cy="50" r="2" fill="#0f0f0f" opacity="0.3"/>
  <circle cx="24" cy="62" r="2" fill="#0f0f0f" opacity="0.3"/>
  <circle cx="24" cy="74" r="2" fill="#0f0f0f" opacity="0.3"/>
  
  <circle cx="76" cy="26" r="2" fill="#0f0f0f" opacity="0.3"/>
  <circle cx="76" cy="38" r="2" fill="#0f0f0f" opacity="0.3"/>
  <circle cx="76" cy="50" r="2" fill="#0f0f0f" opacity="0.3"/>
  <circle cx="76" cy="62" r="2" fill="#0f0f0f" opacity="0.3"/>
  <circle cx="76" cy="74" r="2" fill="#0f0f0f" opacity="0.3"/>
</svg>

